<svg width="23" height="22" viewBox="0 0 23 22" fill="none" xmlns="http://www.w3.org/2000/svg">
<path d="M20.1301 8.41256C20.0724 8.24274 19.9663 8.09353 19.8248 7.98335C19.6833 7.87316 19.5127 7.80681 19.3339 7.79251L14.1048 7.377L11.842 2.36798C11.7699 2.20665 11.6527 2.06963 11.5045 1.97344C11.3562 1.87726 11.1833 1.82602 11.0066 1.82593C10.83 1.82583 10.657 1.87687 10.5087 1.9729C10.3604 2.06892 10.243 2.20582 10.1707 2.36707L7.90793 7.377L2.67878 7.79251C2.50309 7.80642 2.33513 7.87066 2.19499 7.97754C2.05485 8.08442 1.94847 8.2294 1.88858 8.39516C1.82868 8.56091 1.81781 8.74041 1.85726 8.91218C1.8967 9.08395 1.9848 9.24072 2.11101 9.36373L5.97532 13.1308L4.60864 19.0488C4.56714 19.2279 4.58044 19.4154 4.64682 19.5869C4.71319 19.7584 4.82957 19.9059 4.98086 20.0105C5.13214 20.115 5.31135 20.1716 5.49523 20.173C5.6791 20.1744 5.85915 20.1205 6.01201 20.0183L11.0064 16.6888L16.0007 20.0183C16.1569 20.1221 16.3412 20.1755 16.5287 20.1713C16.7162 20.1672 16.8979 20.1058 17.0494 19.9953C17.201 19.8848 17.3151 19.7306 17.3763 19.5533C17.4376 19.3761 17.4431 19.1843 17.3921 19.0039L15.7145 13.1336L19.8751 9.38941C20.1475 9.14359 20.2475 8.76019 20.1301 8.41256Z" fill="#F3CD03"/>
</svg>
