<svg width="23" height="22" viewBox="0 0 23 22" fill="none" xmlns="http://www.w3.org/2000/svg">
<path d="M20.1555 8.41256C20.0978 8.24274 19.9917 8.09353 19.8502 7.98335C19.7087 7.87316 19.5381 7.80681 19.3593 7.79251L14.1302 7.377L11.8673 2.36798C11.7953 2.20665 11.6781 2.06963 11.5298 1.97344C11.3816 1.87726 11.2087 1.82602 11.032 1.82593C10.8553 1.82583 10.6824 1.87687 10.5341 1.9729C10.3857 2.06892 10.2684 2.20582 10.1961 2.36707L7.93332 7.377L2.70417 7.79251C2.52848 7.80642 2.36052 7.87066 2.22038 7.97754C2.08024 8.08442 1.97386 8.2294 1.91397 8.39516C1.85407 8.56091 1.8432 8.74041 1.88265 8.91218C1.92209 9.08395 2.01019 9.24072 2.1364 9.36373L6.00071 13.1308L4.63403 19.0488C4.59253 19.2279 4.60583 19.4154 4.67221 19.5869C4.73858 19.7584 4.85496 19.9059 5.00625 20.0105C5.15753 20.115 5.33674 20.1716 5.52062 20.173C5.70449 20.1744 5.88454 20.1205 6.0374 20.0183L11.0317 16.6888L16.0261 20.0183C16.1823 20.1221 16.3666 20.1755 16.5541 20.1713C16.7416 20.1672 16.9233 20.1058 17.0748 19.9953C17.2264 19.8848 17.3405 19.7306 17.4017 19.5533C17.463 19.3761 17.4685 19.1843 17.4175 19.0039L15.7399 13.1336L19.9005 9.38941C20.1729 9.14359 20.2729 8.76019 20.1555 8.41256Z" fill="#F3CD03"/>
</svg>
