<svg width="23" height="22" viewBox="0 0 23 22" fill="none" xmlns="http://www.w3.org/2000/svg">
<path d="M20.173 8.41256C20.1154 8.24274 20.0093 8.09353 19.8678 7.98335C19.7263 7.87316 19.5556 7.80681 19.3769 7.79251L14.1477 7.377L11.8849 2.36798C11.8129 2.20665 11.6956 2.06963 11.5474 1.97344C11.3992 1.87726 11.2263 1.82602 11.0496 1.82593C10.8729 1.82583 10.7 1.87687 10.5517 1.9729C10.4033 2.06892 10.286 2.20582 10.2137 2.36707L7.9509 7.377L2.72175 7.79251C2.54606 7.80642 2.3781 7.87066 2.23796 7.97754C2.09782 8.08442 1.99144 8.2294 1.93155 8.39516C1.87165 8.56091 1.86078 8.74041 1.90022 8.91218C1.93967 9.08395 2.02777 9.24072 2.15398 9.36373L6.01829 13.1308L4.65161 19.0488C4.61011 19.2279 4.62341 19.4154 4.68979 19.5869C4.75616 19.7584 4.87254 19.9059 5.02383 20.0105C5.17511 20.115 5.35432 20.1716 5.53819 20.173C5.72207 20.1744 5.90212 20.1205 6.05498 20.0183L11.0493 16.6888L16.0437 20.0183C16.1999 20.1221 16.3842 20.1755 16.5716 20.1713C16.7591 20.1672 16.9409 20.1058 17.0924 19.9953C17.244 19.8848 17.358 19.7306 17.4193 19.5533C17.4806 19.3761 17.4861 19.1843 17.4351 19.0039L15.7575 13.1336L19.9181 9.38941C20.1905 9.14359 20.2905 8.76019 20.173 8.41256Z" fill="#F3CD03"/>
</svg>
